<?xml version="1.0" encoding="utf-8"?>
<!-- Generator: Adobe Illustrator 24.2.3, SVG Export Plug-In . SVG Version: 6.00 Build 0)  -->
<svg version="1.1" xmlns="http://www.w3.org/2000/svg" xmlns:xlink="http://www.w3.org/1999/xlink" x="0px" y="0px"
	 viewBox="0 0 374.1 374.1" style="fill: currentColor; width: 16px;" xml:space="preserve">
<g>
	<path d="M349.2,349.2c-5.9,5.9-13.5,8.8-21.2,8.8c-7.7,0-15.4-2.9-21.2-8.8L185.6,228.1L65.2,348.5
		c-5.9,5.8-13.5,8.8-21.2,8.8s-15.3-2.9-21.2-8.8c-11.7-11.7-11.7-30.7,0-42.4l120.4-120.4L24.9,67.4c-11.7-11.7-11.7-30.7,0-42.4
		c11.7-11.7,30.7-11.7,42.4,0l118.3,118.3L304.6,24.3c11.7-11.7,30.7-11.7,42.4,0c11.7,11.7,11.7,30.7,0,42.4L228.1,185.6
		l121.1,121.1C360.9,318.4,360.9,337.4,349.2,349.2z"/>
</g>
</svg>
